<?xml version="1.0" encoding="UTF-8" standalone="no"?>
<!-- Created with Inkscape (http://www.inkscape.org/) -->

<svg
   width="6.5in"
   height="0.51999998in"
   viewBox="0 0 165.10001 13.208"
   version="1.1"
   id="svg5"
   xml:space="preserve"
   inkscape:version="1.2.1 (9c6d41e410, 2022-07-14)"
   sodipodi:docname="mobius_loop.svg"
   inkscape:export-filename="mobius_loop.png"
   inkscape:export-xdpi="8.1366282"
   inkscape:export-ydpi="8.1366282"
   xmlns:inkscape="http://www.inkscape.org/namespaces/inkscape"
   xmlns:sodipodi="http://sodipodi.sourceforge.net/DTD/sodipodi-0.dtd"
   xmlns="http://www.w3.org/2000/svg"
   xmlns:svg="http://www.w3.org/2000/svg"><sodipodi:namedview
     id="namedview7"
     pagecolor="#ffffff"
     bordercolor="#000000"
     borderopacity="0.25"
     inkscape:showpageshadow="2"
     inkscape:pageopacity="0.0"
     inkscape:pagecheckerboard="0"
     inkscape:deskcolor="#d1d1d1"
     inkscape:document-units="mm"
     showgrid="false"
     inkscape:zoom="2.1089995"
     inkscape:cx="313.18168"
     inkscape:cy="13.750596"
     inkscape:window-width="1920"
     inkscape:window-height="1017"
     inkscape:window-x="2992"
     inkscape:window-y="244"
     inkscape:window-maximized="1"
     inkscape:current-layer="layer1" /><defs
     id="defs2" /><g
     inkscape:label="Layer 1"
     inkscape:groupmode="layer"
     id="layer1"
     transform="translate(-21.189559,-63.183646)"><path
       d="m 96.967289,67.415233 0.850055,0.671679 -0.805316,1.54486 c -0.402654,0.716458 0.290805,1.410525 0.738207,1.656808 0.425014,0.246282 1.118473,0.268671 1.744832,0.268671 l 1.140853,-1.858311 0.85005,0.470175 -1.4764,-2.753882 -3.019902,0.02238 m 0.134218,3.78379 1.83431,3.40317 c 0.380284,0.470176 1.073734,0.582121 1.789574,0.559732 h 1.94615 v -3.224056 l -3.690985,-0.02239 c -0.581611,0.04478 -1.319818,-0.08956 -1.901429,-0.716457 m 11.565114,-6.269 -1.00663,0.425397 -0.96191,-1.455304 c -0.42502,-0.694068 -1.36455,-0.425397 -1.78958,-0.156725 -0.42501,0.268671 -0.76055,0.850792 -1.07373,1.388135 l 1.07373,1.90309 -0.82766,0.514952 3.13174,0.04478 z m -3.37783,-1.723975 -3.86993,-0.04478 c -0.58161,0.08957 -1.029,0.649289 -1.36455,1.298579 l -0.939536,1.701585 2.818576,1.56725 1.81194,-3.201668 c 0.24607,-0.514954 0.71583,-1.119464 1.5435,-1.298578 m 0.17896,13.120121 0.11186,-1.074686 1.74483,-0.134337 c 0.82768,-0.04478 1.02899,-0.985128 1.00663,-1.500081 -0.0224,-0.492563 -0.35792,-1.074686 -0.69346,-1.612029 l -2.17344,0.02071 -0.0671,-0.962739 -1.54351,2.731491 1.63297,2.552379 m 3.13177,-2.104592 1.90142,-3.358393 c 0.20132,-0.559732 -0.0671,-1.209021 -0.46977,-1.813532 l -1.02901,-1.656808 -2.72909,1.701588 1.92379,3.134498 c 0.33554,0.470174 0.62635,1.164244 0.38028,1.992647 z"
       fill="#4d4d4d"
       id="path9"
       style="fill:#000000;stroke-width:0.0223795" /></g></svg>
