<?xml version="1.0" encoding="UTF-8" standalone="no"?>
<!DOCTYPE svg PUBLIC "-//W3C//DTD SVG 1.1//EN" "http://www.w3.org/Graphics/SVG/1.1/DTD/svg11.dtd">
<svg xmlns:xl="http://www.w3.org/1999/xlink" xmlns="http://www.w3.org/2000/svg" xmlns:dc="http://purl.org/dc/elements/1.1/" version="1.1" viewBox="231.5 -60.5 378.7326 435" width="378.7326" height="435">
  <defs>
    <radialGradient cx="0" cy="0" r="1" id="Gradient" gradientUnits="userSpaceOnUse">
      <stop offset="0" stop-color="#676767"/>
      <stop offset=".49615294" stop-color="#404040"/>
      <stop offset="1" stop-color="#121212"/>
    </radialGradient>
    <radialGradient id="Obj_Gradient" xl:href="#Gradient" gradientTransform="translate(420.8663 157) scale(277.80452)"/>
    <filter id="Shadow" filterUnits="userSpaceOnUse" x="193.62674" y="-104">
      <feGaussianBlur in="SourceAlpha" result="blur" stdDeviation="1.308"/>
      <feOffset in="blur" result="offset" dx="0" dy="6"/>
      <feFlood flood-color="black" flood-opacity=".5" result="flood"/>
      <feComposite in="flood" in2="offset" operator="in" result="color"/>
      <feMerge>
        <feMergeNode in="color"/>
        <feMergeNode in="SourceGraphic"/>
      </feMerge>
    </filter>
    <filter id="Shadow_2" filterUnits="userSpaceOnUse" x="193.62674" y="-104">
      <feGaussianBlur in="SourceAlpha" result="blur" stdDeviation="1.744"/>
      <feOffset in="blur" result="offset" dx="0" dy="2"/>
      <feFlood flood-color="black" flood-opacity=".09626736" result="flood"/>
      <feComposite in="flood" in2="offset" operator="in" result="color"/>
      <feMerge>
        <feMergeNode in="color"/>
        <feMergeNode in="SourceGraphic"/>
      </feMerge>
    </filter>
  </defs>
  <metadata> Produced by OmniGraffle 7.17.5\n2020-09-27 18:51:08 +0000</metadata>
  <g id="Canvas_1" stroke="none" fill="none" stroke-opacity="1" fill-opacity="1" stroke-dasharray="none">
    <title>Canvas 1</title>
    <g id="Canvas_1_Layer_1">
      <title>Layer 1</title>
      <g id="Graphic_4">
        <path d="M 602.7326 52 L 602.7326 262 L 420.8642 367 L 239 262 L 239 52 L 420.8642 -53 Z" fill="url(#Obj_Gradient)"/>
        <path d="M 602.7326 52 L 602.7326 262 L 420.8642 367 L 239 262 L 239 52 L 420.8642 -53 Z" stroke="black" stroke-linecap="round" stroke-linejoin="round" stroke-width="15"/>
      </g>
      <g id="Group_26">
        <g id="Graphic_23" filter="url(#Shadow)">
          <title>path3</title>
          <path d="M 471.8315 13.968507 C 426.7838 8.827413 392.6444 60.60871 388.85693 91.74475 C 402.37432 71.43438 425.52223 42.70499 450.7916 27.034803 C 428.298 43.994877 405.07753 70.38147 388.48477 97.58826 C 387.73508 98.81855 386.9988 100.05167 386.276 101.28338 C 386.1658 101.46927 386.05968 101.65658 385.9522 101.84247 C 385.62974 102.39872 385.3167 102.95356 384.9983 103.50981 L 366.8067 103.50981 C 365.78426 103.50981 364.94992 104.39244 364.94992 105.47089 L 364.94992 110.54245 C 364.94992 111.6209 365.7856 112.50211 366.8067 112.50211 L 369.01145 112.50211 L 369.01145 119.76605 L 356.59564 119.76605 C 354.0429 119.76605 351.7038 121.95701 351.40016 124.63328 L 349.23437 161.24554 C 348.9294 163.9218 350.7687 166.11276 353.32143 166.11276 L 413.91415 166.11276 C 416.4669 166.11276 418.30485 163.9218 418.0012 161.24554 L 415.83676 124.63328 C 415.53043 121.95701 413.19267 119.76605 410.63993 119.76605 L 398.22546 119.76605 L 398.22546 112.50211 L 400.42753 112.50211 C 401.44997 112.50211 402.2843 111.6209 402.2843 110.54245 L 402.2843 105.47089 C 402.2843 104.39244 401.4486 103.50981 400.42753 103.50981 L 389.2761 103.50981 C 390.34827 101.57853 391.46206 99.62597 392.63363 97.64644 C 409.49376 97.73158 422.6027 93.38655 432.95606 86.15241 C 426.323 82.63325 415.9092 78.6444 408.4794 77.06504 C 417.42604 77.34884 425.44296 77.37012 438.3047 81.95922 C 452.0035 69.96144 460.2394 52.42241 466.1389 34.135557 C 460.8225 33.19617 455.2226 32.568964 450.7768 32.54626 C 456.14293 31.60971 461.16107 30.651873 467.28897 30.464563 C 468.963 24.96162 470.45167 19.418946 471.8315 13.968507 Z" fill="white"/>
        </g>
        <g id="Graphic_25">
          <path d="M 381.4779 164.4063 L 381.9776 154.82325 C 381.9923 154.50404 381.86154 154.19536 381.622 153.98387 C 381.38244 153.77238 381.05994 153.68087 380.745 153.73502 L 371.2064 155.41178 L 372.4945 151.8584 C 372.60164 151.5685 372.51234 151.24257 372.2724 151.04777 L 361.8232 142.58627 L 364.17734 141.48694 C 364.5063 141.33148 364.66814 140.95547 364.5549 140.6097 L 362.4895 134.25802 L 368.50803 135.53501 C 368.8442 135.6051 369.18323 135.42863 369.31865 135.11305 L 370.4846 132.37028 L 375.18174 137.41165 C 375.40235 137.64434 375.75 137.7036 376.03525 137.55712 C 376.3205 137.41065 376.4749 137.09357 376.4143 136.7787 L 374.14903 125.09694 L 377.78015 127.19566 C 377.95247 127.29665 378.15894 127.32173 378.35043 127.26491 C 378.5419 127.2081 378.7013 127.07447 378.79065 126.89584 L 382.4773 119.65581 L 386.16393 126.89584 C 386.2533 127.07447 386.41266 127.2081 386.60415 127.26491 C 386.79564 127.32173 387.0021 127.29665 387.17442 127.19566 L 390.80554 125.09694 L 388.54026 136.7787 C 388.4797 137.09357 388.6341 137.41065 388.91933 137.55712 C 389.20456 137.7036 389.55223 137.64434 389.77284 137.41165 L 394.46997 132.37028 L 395.63593 135.11305 C 395.77135 135.42863 396.11037 135.6051 396.44655 135.53501 L 402.4651 134.25802 L 400.3997 140.6097 C 400.28644 140.95547 400.44827 141.33148 400.77724 141.48694 L 403.13136 142.58627 L 392.68218 151.04777 C 392.44223 151.24257 392.35294 151.5685 392.4601 151.8584 L 393.7482 155.41178 L 384.20957 153.73502 C 383.89464 153.68087 383.57214 153.77238 383.3326 153.98387 C 383.09304 154.19536 382.96227 154.50404 382.977 154.82325 L 383.4767 164.4063 Z" fill="#c40000" fill-opacity=".9541956"/>
        </g>
      </g>
      <g id="Group_41">
        <title/>
        <g id="Graphic_33" filter="url(#Shadow_2)">
          <path d="M 287.77157 205.8412 C 291.7781 205.8412 295.0375 206.81514 297.5499 208.76307 C 300.06228 210.711 301.573 214.06448 302.08212 218.82361 L 296.27157 218.82361 C 295.9174 216.6322 295.10947 214.81158 293.84775 213.3617 C 292.58602 211.91182 290.56065 211.1869 287.77157 211.1869 C 283.96426 211.1869 281.24163 213.04625 279.6036 216.76502 C 278.5411 219.1778 278.00986 222.15498 278.00986 225.69666 C 278.00986 229.26048 278.76245 232.2598 280.26767 234.6947 C 281.7729 237.12962 284.14135 238.34705 287.37314 238.34705 C 289.8523 238.34705 291.8168 237.58892 293.2667 236.07264 C 294.71657 234.55635 295.7182 232.48118 296.27157 229.84705 L 302.08212 229.84705 C 301.41806 234.56192 299.7579 238.00948 297.10165 240.18983 C 294.4454 242.37017 291.04764 243.46033 286.9083 243.46033 C 282.25983 243.46033 278.5522 241.76146 275.78525 238.36365 C 273.0183 234.96585 271.63486 230.72143 271.63486 225.63026 C 271.63486 219.38804 273.1511 214.52936 276.18368 211.05408 C 279.21625 207.5788 283.07884 205.8412 287.77157 205.8412 Z" fill="white" fill-opacity=".9681784"/>
        </g>
        <g id="Graphic_34" filter="url(#Shadow_2)">
          <path d="M 311.6114 231.2748 C 311.7885 233.26698 312.28654 234.7943 313.10556 235.85682 C 314.61077 237.7826 317.22273 238.7455 320.9415 238.7455 C 323.15505 238.7455 325.10295 238.26405 326.78525 237.30115 C 328.46755 236.33826 329.3087 234.84967 329.3087 232.83533 C 329.3087 231.30798 328.63356 230.14588 327.2833 229.349 C 326.42 228.86202 324.7156 228.29758 322.17 227.65565 L 317.42196 226.46033 C 314.3894 225.70773 312.15374 224.8666 310.71493 223.9369 C 308.1472 222.321 306.86337 220.08535 306.86337 217.22986 C 306.86337 213.86526 308.07527 211.14264 310.4991 209.0619 C 312.92295 206.98116 316.18236 205.9408 320.27743 205.9408 C 325.63423 205.9408 329.49682 207.5124 331.86532 210.65565 C 333.3484 212.64784 334.0678 214.79496 334.02353 217.09705 L 328.379 217.09705 C 328.2683 215.74678 327.7924 214.51828 326.95126 213.4115 C 325.57886 211.83988 323.19933 211.05408 319.8126 211.05408 C 317.55477 211.05408 315.84482 211.48572 314.6827 212.349 C 313.5206 213.2123 312.93954 214.35225 312.93954 215.76893 C 312.93954 217.31841 313.7032 218.55798 315.23056 219.48768 C 316.11598 220.04107 317.42196 220.52804 319.14853 220.94861 L 323.0997 221.9115 C 327.394 222.95187 330.27157 223.95903 331.7325 224.933 C 334.05674 226.46034 335.21884 228.862 335.21884 232.13807 C 335.21884 235.30345 334.018 238.03714 331.6163 240.33924 C 329.2146 242.64133 325.55675 243.79236 320.64267 243.79236 C 315.35228 243.79236 311.6059 242.59153 309.4034 240.18983 C 307.20092 237.78812 306.02223 234.81647 305.86728 231.2748 Z" fill="white" fill-opacity=".9681784"/>
        </g>
        <g id="Graphic_35" filter="url(#Shadow_2)">
          <path d="M 346.6407 232.96815 C 346.6407 234.69472 347.27157 236.05603 348.5333 237.05213 C 349.795 238.04823 351.28914 238.54627 353.0157 238.54627 C 355.1186 238.54627 357.15503 238.0593 359.1251 237.08533 C 362.4454 235.46944 364.10556 232.82428 364.10556 229.14979 L 364.10556 224.33533 C 363.3751 224.80018 362.43434 225.18755 361.2833 225.49744 C 360.13225 225.80734 359.00335 226.0287 357.89657 226.1615 L 354.27743 226.62635 C 352.10815 226.9141 350.4812 227.36788 349.39657 227.98768 C 347.55933 229.02805 346.6407 230.6882 346.6407 232.96815 Z M 361.11728 220.8822 C 362.4897 220.70512 363.4083 220.1296 363.87314 219.15565 C 364.13876 218.6244 364.27157 217.86073 364.27157 216.86463 C 364.27157 214.82816 363.54665 213.35064 362.09677 212.43201 C 360.6469 211.5134 358.5717 211.05408 355.8712 211.05408 C 352.75007 211.05408 350.53655 211.89522 349.23056 213.57752 C 348.5001 214.50721 348.02418 215.89066 347.80282 217.7279 L 342.2247 217.7279 C 342.33538 213.34508 343.75756 210.29595 346.4913 208.58045 C 349.22504 206.86495 352.3959 206.0072 356.004 206.0072 C 360.1876 206.0072 363.58536 206.80408 366.19736 208.39783 C 368.7872 209.9916 370.0821 212.47073 370.0821 215.83533 L 370.0821 236.32166 C 370.0821 236.94146 370.2094 237.4395 370.46396 237.8158 C 370.7185 238.1921 371.2553 238.38026 372.0743 238.38026 C 372.33993 238.38026 372.63876 238.36365 372.9708 238.33045 C 373.30283 238.29725 373.657 238.24744 374.0333 238.18104 L 374.0333 242.59705 C 373.1036 242.86268 372.39527 243.0287 371.9083 243.0951 C 371.4213 243.1615 370.75726 243.1947 369.9161 243.1947 C 367.8575 243.1947 366.36338 242.46425 365.4337 241.0033 C 364.9467 240.22856 364.6036 239.13287 364.4044 237.7162 C 363.18693 239.30995 361.43825 240.6934 359.1583 241.86658 C 356.87833 243.03977 354.366 243.62635 351.6212 243.62635 C 348.323 243.62635 345.62803 242.62473 343.53622 240.62147 C 341.4444 238.6182 340.39853 236.1114 340.39853 233.10096 C 340.39853 229.80276 341.4278 227.24615 343.4864 225.43104 C 345.54502 223.61592 348.2455 222.4981 351.588 222.07752 Z" fill="white" fill-opacity=".9681784"/>
        </g>
        <g id="Graphic_36" filter="url(#Shadow_2)">
          <path d="M 383.42978 231.2748 C 383.60686 233.26698 384.1049 234.7943 384.9239 235.85682 C 386.42913 237.7826 389.0411 238.7455 392.75986 238.7455 C 394.9734 238.7455 396.9213 238.26405 398.6036 237.30115 C 400.2859 236.33826 401.12704 234.84967 401.12704 232.83533 C 401.12704 231.30798 400.4519 230.14588 399.10165 229.349 C 398.23837 228.86202 396.53396 228.29758 393.98837 227.65565 L 389.24032 226.46033 C 386.20776 225.70773 383.9721 224.8666 382.5333 223.9369 C 379.96557 222.321 378.68173 220.08535 378.68173 217.22986 C 378.68173 213.86526 379.89363 211.14264 382.31747 209.0619 C 384.7413 206.98116 388.0007 205.9408 392.0958 205.9408 C 397.4526 205.9408 401.3152 207.5124 403.6837 210.65565 C 405.16676 212.64784 405.88616 214.79496 405.8419 217.09705 L 400.19736 217.09705 C 400.0867 215.74678 399.61077 214.51828 398.7696 213.4115 C 397.3972 211.83988 395.0177 211.05408 391.63095 211.05408 C 389.37313 211.05408 387.6632 211.48572 386.50107 212.349 C 385.33895 213.2123 384.7579 214.35225 384.7579 215.76893 C 384.7579 217.31841 385.52157 218.55798 387.0489 219.48768 C 387.93434 220.04107 389.2403 220.52804 390.9669 220.94861 L 394.91806 221.9115 C 399.21235 222.95187 402.08993 223.95903 403.55087 224.933 C 405.8751 226.46034 407.0372 228.862 407.0372 232.13807 C 407.0372 235.30345 405.83636 238.03714 403.43466 240.33924 C 401.03296 242.64133 397.3751 243.79236 392.46103 243.79236 C 387.17064 243.79236 383.42425 242.59153 381.22177 240.18983 C 379.0193 237.78812 377.8406 234.81647 377.68564 231.2748 Z" fill="white" fill-opacity=".9681784"/>
        </g>
        <g id="Graphic_37" filter="url(#Shadow_2)">
          <path d="M 417.6622 225.0658 C 417.6622 228.8731 418.47013 232.06058 420.08603 234.6283 C 421.7019 237.19602 424.29174 238.47986 427.85556 238.47986 C 430.6225 238.47986 432.8969 237.2901 434.6788 234.91053 C 436.4607 232.53096 437.35165 229.1166 437.35165 224.66736 C 437.35165 220.17385 436.43304 216.84804 434.5958 214.68983 C 432.75854 212.5316 430.4897 211.45252 427.78915 211.45252 C 424.7787 211.45252 422.3383 212.60355 420.46786 214.90565 C 418.5974 217.20774 417.6622 220.59443 417.6622 225.0658 Z M 426.66025 206.23963 C 429.3829 206.23963 431.66284 206.81515 433.5001 207.9662 C 434.5626 208.63026 435.76896 209.79236 437.11923 211.45252 L 437.11923 193.48963 L 442.86337 193.48963 L 442.86337 242.43104 L 437.48446 242.43104 L 437.48446 237.48377 C 436.08993 239.6752 434.44085 241.25785 432.5372 242.23182 C 430.63354 243.20578 428.45323 243.69276 425.9962 243.69276 C 422.0339 243.69276 418.60297 242.02708 415.7032 238.69568 C 412.80346 235.3643 411.3536 230.93171 411.3536 225.39783 C 411.3536 220.21812 412.6762 215.7302 415.3214 211.93397 C 417.96657 208.13772 421.74616 206.23963 426.66025 206.23963 Z" fill="white" fill-opacity=".9681784"/>
        </g>
        <g id="Graphic_38" filter="url(#Shadow_2)">
          <path d="M 465.80673 238.57947 C 469.769 238.57947 472.4861 237.07981 473.9581 234.08045 C 475.4301 231.0811 476.1661 227.7442 476.1661 224.0697 C 476.1661 220.74938 475.63486 218.04889 474.57236 215.96815 C 472.89006 212.6921 469.99034 211.05408 465.87314 211.05408 C 462.2208 211.05408 459.56455 212.4486 457.9044 215.23768 C 456.2442 218.02675 455.41415 221.3913 455.41415 225.33143 C 455.41415 229.1166 456.2442 232.27087 457.9044 234.79432 C 459.56455 237.31777 462.19864 238.57947 465.80673 238.57947 Z M 466.03915 205.8412 C 470.6212 205.8412 474.49487 207.36852 477.66025 210.42322 C 480.8256 213.47793 482.4083 217.97137 482.4083 223.9037 C 482.4083 229.6368 481.0138 234.37373 478.2247 238.11463 C 475.4356 241.85553 471.1082 243.72596 465.2423 243.72596 C 460.3503 243.72596 456.4656 242.07135 453.588 238.7621 C 450.71036 235.45283 449.2716 231.0092 449.2716 225.43104 C 449.2716 219.45444 450.78783 214.69538 453.8204 211.1537 C 456.85297 207.612 460.92585 205.8412 466.03915 205.8412 Z" fill="white" fill-opacity=".9681784"/>
        </g>
        <g id="Graphic_39" filter="url(#Shadow_2)">
          <path d="M 492.2696 206.8705 L 499.10946 234.89393 L 506.0489 206.8705 L 512.75595 206.8705 L 519.7286 234.7279 L 527.0001 206.8705 L 532.97665 206.8705 L 522.6505 242.43104 L 516.4415 242.43104 L 509.2032 214.90565 L 502.19736 242.43104 L 495.9884 242.43104 L 485.7286 206.8705 Z" fill="white" fill-opacity=".9681784"/>
        </g>
        <g id="Graphic_40" filter="url(#Shadow_2)">
          <path d="M 538.6212 206.8705 L 544.2989 206.8705 L 544.2989 211.91736 C 545.9812 209.83662 547.7631 208.3425 549.6446 207.43494 C 551.52614 206.52739 553.6179 206.07361 555.92 206.07361 C 560.9669 206.07361 564.3757 207.83336 566.1466 211.3529 C 567.12054 213.2787 567.6075 216.03453 567.6075 219.6205 L 567.6075 242.43104 L 561.53134 242.43104 L 561.53134 220.01893 C 561.53134 217.84965 561.2104 216.10096 560.56845 214.77283 C 559.50594 212.55928 557.5802 211.45252 554.7911 211.45252 C 553.3744 211.45252 552.21233 211.5964 551.3048 211.88416 C 549.66675 212.37114 548.22796 213.3451 546.9884 214.80604 C 545.9923 215.97922 545.3448 217.19112 545.046 218.44178 C 544.74716 219.69244 544.59775 221.47985 544.59775 223.80408 L 544.59775 242.43104 L 538.6212 242.43104 Z" fill="white" fill-opacity=".9681784"/>
        </g>
      </g>
    </g>
  </g>
</svg>
